<svg width="49.896431" height="21.274902" viewBox="0 0 49.8964 21.2749" fill="none" xmlns="http://www.w3.org/2000/svg" xmlns:xlink="http://www.w3.org/1999/xlink">
	<desc>
			Created with Pixso.
	</desc>
	<defs/>
	<path id="Logo" d="M2.00342 13.707L7.37451 13.707L7.37451 15.3345L0 15.3345L0 0L2.00342 0L2.00342 13.707ZM14.7623 15.5332Q13.0704 15.5332 11.6954 14.7651Q10.3204 13.9917 9.53623 12.5737Q8.75742 11.1558 8.75742 9.28662Q8.75742 7.43896 9.55771 6.021Q10.3634 4.59766 11.7491 3.84033Q13.1349 3.08301 14.8536 3.08301Q16.567 3.08301 17.9527 3.84033Q19.3385 4.59766 20.1388 6.00488Q20.9444 7.41211 20.9444 9.28662Q20.9444 11.1558 20.1173 12.5737Q19.2955 13.9917 17.8883 14.7651Q16.4811 15.5332 14.7623 15.5332ZM14.7623 13.7715Q15.8419 13.7715 16.7872 13.2666Q17.7325 12.7617 18.3126 11.752Q18.898 10.7368 18.898 9.28662Q18.898 7.83105 18.3233 6.82129Q17.754 5.80615 16.8302 5.31201Q15.9063 4.81787 14.8321 4.81787Q13.7311 4.81787 12.818 5.31201Q11.9049 5.80615 11.3517 6.82129Q10.8038 7.83105 10.8038 9.28662Q10.8038 10.7583 11.3409 11.7734Q11.8834 12.7832 12.7857 13.2773Q13.6881 13.7715 14.7623 13.7715ZM28.5576 3.08301Q30.1206 3.08301 31.2969 3.76514Q32.4732 4.44189 33.0479 5.47852L33.0479 3.27637L35.0674 3.27637L35.0674 15.5977Q35.0674 17.2466 34.3638 18.5356Q33.6602 19.8247 32.3496 20.5498Q31.0444 21.2749 29.3042 21.2749Q26.9302 21.2749 25.3457 20.1523Q23.7612 19.0298 23.4766 17.0962L25.4585 17.0962Q25.7861 18.1919 26.8174 18.8633Q27.854 19.5347 29.3042 19.5347Q30.9585 19.5347 32.0005 18.498Q33.0479 17.4668 33.0479 15.5977L33.0479 13.0679Q32.4517 14.126 31.2861 14.8296Q30.1206 15.5332 28.5576 15.5332Q26.9517 15.5332 25.6411 14.7437Q24.336 13.9487 23.584 12.52Q22.8374 11.0859 22.8374 9.26514Q22.8374 7.41211 23.584 6.01562Q24.336 4.61914 25.6411 3.85107Q26.9517 3.08301 28.5576 3.08301ZM33.0479 9.28662Q33.0479 7.92236 32.4946 6.9126Q31.9468 5.89746 31.0122 5.36035Q30.0777 4.81787 28.9551 4.81787Q27.8325 4.81787 26.9087 5.34961Q25.9849 5.87598 25.4317 6.89111Q24.8838 7.90088 24.8838 9.26514Q24.8838 10.6509 25.4317 11.6714Q25.9849 12.6919 26.9087 13.2344Q27.8325 13.7715 28.9551 13.7715Q30.0777 13.7715 31.0122 13.2344Q31.9468 12.6919 32.4946 11.6714Q33.0479 10.6509 33.0479 9.28662ZM43.7143 15.5332Q42.0224 15.5332 40.6474 14.7651Q39.2724 13.9917 38.4882 12.5737Q37.7094 11.1558 37.7094 9.28662Q37.7094 7.43896 38.5097 6.021Q39.3154 4.59766 40.7011 3.84033Q42.0869 3.08301 43.8056 3.08301Q45.519 3.08301 46.9047 3.84033Q48.2905 4.59766 49.0908 6.00488Q49.8964 7.41211 49.8964 9.28662Q49.8964 11.1558 49.0693 12.5737Q48.2475 13.9917 46.8403 14.7651Q45.4331 15.5332 43.7143 15.5332ZM43.7143 13.7715Q44.7939 13.7715 45.7392 13.2666Q46.6845 12.7617 47.2646 11.752Q47.85 10.7368 47.85 9.28662Q47.85 7.83105 47.2753 6.82129Q46.706 5.80615 45.7822 5.31201Q44.8583 4.81787 43.7841 4.81787Q42.6831 4.81787 41.77 5.31201Q40.8569 5.80615 40.3037 6.82129Q39.7558 7.83105 39.7558 9.28662Q39.7558 10.7583 40.2929 11.7734Q40.8354 12.7832 41.7377 13.2773Q42.6401 13.7715 43.7143 13.7715Z" fill="#000000" fill-opacity="1.000000" fill-rule="evenodd"/>
</svg>
