<svg width="108.864944" height="46.417969" viewBox="0 0 108.865 46.418" fill="none" xmlns="http://www.w3.org/2000/svg" xmlns:xlink="http://www.w3.org/1999/xlink">
	<desc>
			Created with Pixso.
	</desc>
	<defs/>
	<path id="Logo" d="M4.37109 29.9062L16.0898 29.9062L16.0898 33.457L0 33.457L0 0L4.37109 0L4.37109 29.9062ZM32.2087 33.8906Q28.5173 33.8906 25.5173 32.2148Q22.5173 30.5273 20.8063 27.4336Q19.1071 24.3398 19.1071 20.2617Q19.1071 16.2305 20.8532 13.1367Q22.611 10.0312 25.6344 8.37891Q28.6579 6.72656 32.4079 6.72656Q36.1462 6.72656 39.1696 8.37891Q42.193 10.0312 43.9391 13.1016Q45.6969 16.1719 45.6969 20.2617Q45.6969 24.3398 43.8923 27.4336Q42.0993 30.5273 39.029 32.2148Q35.9587 33.8906 32.2087 33.8906ZM32.2087 30.0469Q34.5641 30.0469 36.6266 28.9453Q38.6891 27.8438 39.9548 25.6406Q41.2321 23.4258 41.2321 20.2617Q41.2321 17.0859 39.9782 14.8828Q38.736 12.668 36.7204 11.5898Q34.7048 10.5117 32.361 10.5117Q29.9587 10.5117 27.9665 11.5898Q25.9743 12.668 24.7673 14.8828Q23.5719 17.0859 23.5719 20.2617Q23.5719 23.4727 24.7438 25.6875Q25.9274 27.8906 27.8962 28.9688Q29.8649 30.0469 32.2087 30.0469ZM62.3076 6.72656Q65.7177 6.72656 68.2841 8.21484Q70.8505 9.69141 72.1044 11.9531L72.1044 7.14844L76.5107 7.14844L76.5107 34.0312Q76.5107 37.6289 74.9755 40.4414Q73.4404 43.2539 70.581 44.8359Q67.7333 46.418 63.9365 46.418Q58.7568 46.418 55.2998 43.9688Q51.8427 41.5195 51.2216 37.3008L55.5458 37.3008Q56.2607 39.6914 58.5107 41.1562Q60.7724 42.6211 63.9365 42.6211Q67.5458 42.6211 69.8193 40.3594Q72.1044 38.1094 72.1044 34.0312L72.1044 28.5117Q70.8037 30.8203 68.2607 32.3555Q65.7177 33.8906 62.3076 33.8906Q58.8037 33.8906 55.9443 32.168Q53.0966 30.4336 51.456 27.3164Q49.8271 24.1875 49.8271 20.2148Q49.8271 16.1719 51.456 13.125Q53.0966 10.0781 55.9443 8.40234Q58.8037 6.72656 62.3076 6.72656ZM72.1044 20.2617Q72.1044 17.2852 70.8974 15.082Q69.7021 12.8672 67.663 11.6953Q65.624 10.5117 63.1748 10.5117Q60.7255 10.5117 58.7099 11.6719Q56.6943 12.8203 55.4873 15.0352Q54.2919 17.2383 54.2919 20.2148Q54.2919 23.2383 55.4873 25.4648Q56.6943 27.6914 58.7099 28.875Q60.7255 30.0469 63.1748 30.0469Q65.624 30.0469 67.663 28.875Q69.7021 27.6914 70.8974 25.4648Q72.1044 23.2383 72.1044 20.2617ZM95.3767 33.8906Q91.6853 33.8906 88.6853 32.2148Q85.6853 30.5273 83.9743 27.4336Q82.2751 24.3398 82.2751 20.2617Q82.2751 16.2305 84.0212 13.1367Q85.779 10.0312 88.8024 8.37891Q91.8259 6.72656 95.5759 6.72656Q99.3142 6.72656 102.338 8.37891Q105.361 10.0312 107.107 13.1016Q108.865 16.1719 108.865 20.2617Q108.865 24.3398 107.06 27.4336Q105.267 30.5273 102.197 32.2148Q99.1267 33.8906 95.3767 33.8906ZM95.3767 30.0469Q97.7321 30.0469 99.7946 28.9453Q101.857 27.8438 103.123 25.6406Q104.4 23.4258 104.4 20.2617Q104.4 17.0859 103.146 14.8828Q101.904 12.668 99.8884 11.5898Q97.8728 10.5117 95.529 10.5117Q93.1267 10.5117 91.1345 11.5898Q89.1423 12.668 87.9353 14.8828Q86.7399 17.0859 86.7399 20.2617Q86.7399 23.4727 87.9118 25.6875Q89.0954 27.8906 91.0642 28.9688Q93.0329 30.0469 95.3767 30.0469Z" fill="#FFFFFF" fill-opacity="1.000000" fill-rule="evenodd"/>
</svg>
