<svg width="247.000000" height="78.000000" viewBox="0 0 247 78" fill="none" xmlns="http://www.w3.org/2000/svg" xmlns:xlink="http://www.w3.org/1999/xlink">
	<desc>
			Created with Pixso.
	</desc>
	<defs/>
	<path id="179,089,989++" d="M1.52734 15.75L1.52734 12.2139L8.59961 12.2139L8.59961 37L4.68994 37L4.68994 15.75L1.52734 15.75ZM29.6471 15.2021L20.1925 37L16.2828 37L25.837 15.6172L13.2613 15.6172L13.2613 12.3135L29.6471 12.3135L29.6471 15.2021ZM37.8047 30.2681Q38.1451 31.9697 39.2657 32.8579Q40.3946 33.7378 42.2955 33.7378Q44.711 33.7378 45.8316 31.8369Q46.9522 29.9277 46.9522 25.3374Q46.1387 26.4912 44.6612 27.1221Q43.1837 27.7529 41.4488 27.7529Q39.2325 27.7529 37.4312 26.8564Q35.6299 25.9517 34.5923 24.167Q33.5547 22.3823 33.5547 19.834Q33.5547 16.0903 35.7462 13.8657Q37.9459 11.6328 41.7891 11.6328Q46.4127 11.6328 48.3633 14.7124Q50.3223 17.792 50.3223 24.1504Q50.3223 28.5332 49.5919 31.3223Q48.8614 34.1113 47.0518 35.5391Q45.2505 36.9668 42.0547 36.9668Q38.419 36.9668 36.4434 35.0659Q34.4761 33.1567 34.2354 30.2681L37.8047 30.2681ZM42.1295 24.4907Q44.1631 24.4907 45.3336 23.2124Q46.5123 21.9341 46.5123 19.834Q46.5123 17.4849 45.2672 16.1816Q44.0303 14.8701 41.8887 14.8701Q39.7471 14.8701 38.502 16.2148Q37.2652 17.5513 37.2652 19.7261Q37.2652 21.8013 38.4688 23.146Q39.6807 24.4907 42.1295 24.4907ZM59.3283 32.3433L55.2195 41.7231L52.696 41.7231L55.1115 32.3433L59.3283 32.3433ZM62.222 24.2832Q62.222 18.3979 64.2059 15.0859Q66.1981 11.7739 71.0623 11.7739Q75.9183 11.7739 77.9105 15.0859Q79.9027 18.3979 79.9027 24.2832Q79.9027 30.2349 77.9105 33.5884Q75.9183 36.9336 71.0623 36.9336Q66.1981 36.9336 64.2059 33.5884Q62.222 30.2349 62.222 24.2832ZM76.0926 24.2832Q76.0926 21.5273 75.7357 19.6265Q75.3787 17.7256 74.2913 16.522Q73.2039 15.3101 71.0623 15.3101Q68.9207 15.3101 67.8333 16.522Q66.7459 17.7256 66.389 19.6265Q66.0321 21.5273 66.0321 24.2832Q66.0321 27.1387 66.3641 29.0811Q66.7044 31.0151 67.8084 32.2104Q68.9207 33.3975 71.0623 33.3975Q73.2039 33.3975 74.3079 32.2104Q75.4119 31.0151 75.7523 29.0811Q76.0926 27.1387 76.0926 24.2832ZM88.1996 24.0425Q84.6635 22.2744 84.6635 18.4727Q84.6635 16.6382 85.5765 15.1108Q86.4979 13.5752 88.3324 12.6787Q90.1669 11.7739 92.8231 11.7739Q95.4379 11.7739 97.2889 12.6787Q99.14 13.5752 100.061 15.1108Q100.983 16.6382 100.983 18.4727Q100.983 20.3735 100.012 21.8179Q99.0404 23.2622 97.4467 24.0425Q99.3807 24.7563 100.501 26.375Q101.622 27.9937 101.622 30.1685Q101.622 32.3765 100.501 34.0781Q99.3807 35.7798 97.372 36.7012Q95.3715 37.6143 92.8231 37.6143Q90.2665 37.6143 88.2743 36.7012Q86.2904 35.7798 85.1698 34.0781Q84.0492 32.3765 84.0492 30.1685Q84.0492 27.9521 85.1698 26.3584Q86.2904 24.7563 88.1996 24.0425ZM97.2723 18.9458Q97.2723 17.0449 96.077 16.0239Q94.89 15.0029 92.8231 15.0029Q90.7811 15.0029 89.5858 16.0239Q88.3988 17.0449 88.3988 18.979Q88.3988 20.6807 89.6356 21.7515Q90.8807 22.8223 92.8231 22.8223Q94.7572 22.8223 96.0106 21.7349Q97.2723 20.6475 97.2723 18.9458ZM92.8231 25.7441Q90.5736 25.7441 89.1625 26.8481Q87.7514 27.9521 87.7514 30.0273Q87.7514 31.9697 89.1127 33.1816Q90.474 34.3853 92.8231 34.3853Q95.1307 34.3853 96.4755 33.165Q97.8202 31.9365 97.8202 30.0273Q97.8202 27.9937 96.4423 26.873Q95.0643 25.7441 92.8231 25.7441ZM110.531 30.2681Q110.871 31.9697 111.992 32.8579Q113.121 33.7378 115.021 33.7378Q117.437 33.7378 118.558 31.8369Q119.678 29.9277 119.678 25.3374Q118.865 26.4912 117.387 27.1221Q115.91 27.7529 114.175 27.7529Q111.958 27.7529 110.157 26.8564Q108.356 25.9517 107.318 24.167Q106.281 22.3823 106.281 19.834Q106.281 16.0903 108.472 13.8657Q110.672 11.6328 114.515 11.6328Q119.139 11.6328 121.089 14.7124Q123.048 17.792 123.048 24.1504Q123.048 28.5332 122.318 31.3223Q121.587 34.1113 119.778 35.5391Q117.977 36.9668 114.781 36.9668Q111.145 36.9668 109.169 35.0659Q107.202 33.1567 106.961 30.2681L110.531 30.2681ZM114.855 24.4907Q116.889 24.4907 118.06 23.2124Q119.238 21.9341 119.238 19.834Q119.238 17.4849 117.993 16.1816Q116.756 14.8701 114.615 14.8701Q112.473 14.8701 111.228 16.2148Q109.991 17.5513 109.991 19.7261Q109.991 21.8013 111.195 23.146Q112.407 24.4907 114.855 24.4907ZM132.054 32.3433L127.945 41.7231L125.422 41.7231L127.838 32.3433L132.054 32.3433ZM139.771 30.2681Q140.111 31.9697 141.232 32.8579Q142.361 33.7378 144.261 33.7378Q146.677 33.7378 147.798 31.8369Q148.918 29.9277 148.918 25.3374Q148.105 26.4912 146.627 27.1221Q145.15 27.7529 143.415 27.7529Q141.198 27.7529 139.397 26.8564Q137.596 25.9517 136.558 24.167Q135.521 22.3823 135.521 19.834Q135.521 16.0903 137.712 13.8657Q139.912 11.6328 143.755 11.6328Q148.379 11.6328 150.329 14.7124Q152.288 17.792 152.288 24.1504Q152.288 28.5332 151.558 31.3223Q150.827 34.1113 149.018 35.5391Q147.217 36.9668 144.021 36.9668Q140.385 36.9668 138.409 35.0659Q136.442 33.1567 136.201 30.2681L139.771 30.2681ZM144.095 24.4907Q146.129 24.4907 147.3 23.2124Q148.478 21.9341 148.478 19.834Q148.478 17.4849 147.233 16.1816Q145.996 14.8701 143.855 14.8701Q141.713 14.8701 140.468 16.2148Q139.231 17.5513 139.231 19.7261Q139.231 21.8013 140.435 23.146Q141.647 24.4907 144.095 24.4907ZM160.722 24.0425Q157.185 22.2744 157.185 18.4727Q157.185 16.6382 158.099 15.1108Q159.02 13.5752 160.854 12.6787Q162.689 11.7739 165.345 11.7739Q167.96 11.7739 169.811 12.6787Q171.662 13.5752 172.583 15.1108Q173.505 16.6382 173.505 18.4727Q173.505 20.3735 172.534 21.8179Q171.562 23.2622 169.969 24.0425Q171.903 24.7563 173.023 26.375Q174.144 27.9937 174.144 30.1685Q174.144 32.3765 173.023 34.0781Q171.903 35.7798 169.894 36.7012Q167.893 37.6143 165.345 37.6143Q162.788 37.6143 160.796 36.7012Q158.812 35.7798 157.692 34.0781Q156.571 32.3765 156.571 30.1685Q156.571 27.9521 157.692 26.3584Q158.812 24.7563 160.722 24.0425ZM169.794 18.9458Q169.794 17.0449 168.599 16.0239Q167.412 15.0029 165.345 15.0029Q163.303 15.0029 162.108 16.0239Q160.921 17.0449 160.921 18.979Q160.921 20.6807 162.158 21.7515Q163.403 22.8223 165.345 22.8223Q167.279 22.8223 168.533 21.7349Q169.794 20.6475 169.794 18.9458ZM165.345 25.7441Q163.096 25.7441 161.684 26.8481Q160.273 27.9521 160.273 30.0273Q160.273 31.9697 161.635 33.1816Q162.996 34.3853 165.345 34.3853Q167.653 34.3853 168.997 33.165Q170.342 31.9365 170.342 30.0273Q170.342 27.9937 168.964 26.873Q167.586 25.7441 165.345 25.7441ZM183.053 30.2681Q183.393 31.9697 184.514 32.8579Q185.643 33.7378 187.543 33.7378Q189.959 33.7378 191.08 31.8369Q192.2 29.9277 192.2 25.3374Q191.387 26.4912 189.909 27.1221Q188.432 27.7529 186.697 27.7529Q184.48 27.7529 182.679 26.8564Q180.878 25.9517 179.84 24.167Q178.803 22.3823 178.803 19.834Q178.803 16.0903 180.994 13.8657Q183.194 11.6328 187.037 11.6328Q191.661 11.6328 193.611 14.7124Q195.57 17.792 195.57 24.1504Q195.57 28.5332 194.84 31.3223Q194.109 34.1113 192.3 35.5391Q190.499 36.9668 187.303 36.9668Q183.667 36.9668 181.691 35.0659Q179.724 33.1567 179.483 30.2681L183.053 30.2681ZM187.377 24.4907Q189.411 24.4907 190.582 23.2124Q191.76 21.9341 191.76 19.834Q191.76 17.4849 190.515 16.1816Q189.278 14.8701 187.137 14.8701Q184.995 14.8701 183.75 16.2148Q182.513 17.5513 182.513 19.7261Q182.513 21.8013 183.717 23.146Q184.929 24.4907 187.377 24.4907ZM218.588 26.3584L211.715 26.3584L211.715 33.3975L208.112 33.3975L208.112 26.3584L201.248 26.3584L201.248 23.0962L208.112 23.0962L208.112 16.0571L211.715 16.0571L211.715 23.0962L218.588 23.0962L218.588 26.3584ZM242.864 26.3584L235.991 26.3584L235.991 33.3975L232.388 33.3975L232.388 26.3584L225.524 26.3584L225.524 23.0962L232.388 23.0962L232.388 16.0571L235.991 16.0571L235.991 23.0962L242.864 23.0962L242.864 26.3584Z" fill="#FFFFFF" fill-opacity="1.000000" fill-rule="evenodd"/>
	<path id="Photo has Reviewed" d="M10.0986 62.2153Q10.0986 63.1689 9.646 64.0171Q9.19775 64.8608 8.20459 65.3926Q7.21582 65.9243 5.66895 65.9243L3.40137 65.9243L3.40137 71L1.34912 71L1.34912 58.4888L5.66895 58.4888Q7.11035 58.4888 8.10791 58.9854Q9.10986 59.4819 9.60205 60.3301Q10.0986 61.1738 10.0986 62.2153ZM5.66895 64.25Q6.83789 64.25 7.41357 63.7183Q7.99365 63.1865 7.99365 62.2153Q7.99365 60.1631 5.66895 60.1631L3.40137 60.1631L3.40137 64.25L5.66895 64.25ZM17.1919 60.9189Q18.3257 60.9189 19.2134 61.4067Q20.1055 61.8901 20.6197 62.8481Q21.1338 63.8018 21.1338 65.1509L21.1338 71L19.0992 71L19.0992 65.4541Q19.0992 64.1226 18.4312 63.415Q17.7676 62.7031 16.6119 62.7031Q15.4605 62.7031 14.7837 63.415Q14.1114 64.1226 14.1114 65.4541L14.1114 71L12.0591 71L12.0591 57.6802L14.1114 57.6802L14.1114 62.2329Q14.6343 61.6045 15.4341 61.2617Q16.2339 60.9189 17.1919 60.9189ZM28.0434 71.1626Q26.6415 71.1626 25.5077 70.5254Q24.3739 69.8838 23.7235 68.7236Q23.0775 67.5635 23.0775 66.0342Q23.0775 64.5181 23.7411 63.3491Q24.4091 62.1802 25.5605 61.5518Q26.7118 60.9189 28.1357 60.9189Q29.5551 60.9189 30.7065 61.5518Q31.8578 62.1802 32.5258 63.3491Q33.1938 64.5181 33.1938 66.0342Q33.1938 67.5459 32.5082 68.7148Q31.8227 69.8838 30.6449 70.5254Q29.4672 71.1626 28.0434 71.1626ZM28.0434 69.3784Q28.8344 69.3784 29.5287 69.0005Q30.2231 68.6226 30.6537 67.8667Q31.0844 67.1108 31.0844 66.0342Q31.0844 64.9531 30.6713 64.2061Q30.2582 63.459 29.5727 63.0811Q28.8915 62.7031 28.0961 62.7031Q27.3051 62.7031 26.6283 63.0811Q25.956 63.459 25.5605 64.2061Q25.1649 64.9531 25.1649 66.0342Q25.1649 67.6338 25.9823 68.5083Q26.8041 69.3784 28.0434 69.3784ZM37.6201 62.7559L37.6201 68.2446Q37.6201 68.8027 37.8794 69.0488Q38.1431 69.2905 38.7715 69.2905L40.0327 69.2905L40.0327 71L38.4112 71Q37.0269 71 36.2886 70.354Q35.5503 69.7036 35.5503 68.2446L35.5503 62.7559L34.3814 62.7559L34.3814 61.0815L35.5503 61.0815L35.5503 58.6162L37.6201 58.6162L37.6201 61.0815L40.0327 61.0815L40.0327 62.7559L37.6201 62.7559ZM46.2234 71.1626Q44.8215 71.1626 43.6877 70.5254Q42.5539 69.8838 41.9035 68.7236Q41.2575 67.5635 41.2575 66.0342Q41.2575 64.5181 41.9211 63.3491Q42.5891 62.1802 43.7405 61.5518Q44.8918 60.9189 46.3157 60.9189Q47.7351 60.9189 48.8865 61.5518Q50.0378 62.1802 50.7058 63.3491Q51.3738 64.5181 51.3738 66.0342Q51.3738 67.5459 50.6882 68.7148Q50.0027 69.8838 48.8249 70.5254Q47.6472 71.1626 46.2234 71.1626ZM46.2234 69.3784Q47.0144 69.3784 47.7087 69.0005Q48.4031 68.6226 48.8337 67.8667Q49.2644 67.1108 49.2644 66.0342Q49.2644 64.9531 48.8513 64.2061Q48.4382 63.459 47.7527 63.0811Q47.0715 62.7031 46.2761 62.7031Q45.4851 62.7031 44.8083 63.0811Q44.136 63.459 43.7405 64.2061Q43.3449 64.9531 43.3449 66.0342Q43.3449 67.6338 44.1623 68.5083Q44.9841 69.3784 46.2234 69.3784ZM63.2179 60.9189Q64.3517 60.9189 65.2394 61.4067Q66.1315 61.8901 66.6457 62.8481Q67.1598 63.8018 67.1598 65.1509L67.1598 71L65.1252 71L65.1252 65.4541Q65.1252 64.1226 64.4572 63.415Q63.7936 62.7031 62.6379 62.7031Q61.4865 62.7031 60.8097 63.415Q60.1374 64.1226 60.1374 65.4541L60.1374 71L58.0851 71L58.0851 57.6802L60.1374 57.6802L60.1374 62.2329Q60.6603 61.6045 61.4601 61.2617Q62.2599 60.9189 63.2179 60.9189ZM69.086 65.9946Q69.086 64.5005 69.7056 63.3491Q70.3252 62.1978 71.3975 61.5605Q72.4698 60.9189 73.7661 60.9189Q74.9351 60.9189 75.8052 61.3804Q76.6797 61.8374 77.2027 62.5229L77.2027 61.0815L79.2725 61.0815L79.2725 71L77.2027 71L77.2027 69.5234Q76.6797 70.2266 75.7788 70.6968Q74.878 71.1626 73.7266 71.1626Q72.4522 71.1626 71.3887 70.5078Q70.3252 69.8486 69.7056 68.6709Q69.086 67.4888 69.086 65.9946ZM77.2027 66.0342Q77.2027 65.0059 76.7764 64.25Q76.3545 63.4941 75.669 63.0986Q74.9878 62.7031 74.1968 62.7031Q73.4058 62.7031 72.7202 63.0898Q72.0347 63.4766 71.6128 64.2236Q71.1909 64.9707 71.1909 65.9946Q71.1909 67.0229 71.6128 67.7964Q72.0347 68.5698 72.729 68.9741Q73.4234 69.3784 74.1968 69.3784Q74.9878 69.3784 75.669 68.9829Q76.3545 68.5874 76.7764 67.8228Q77.2027 67.0581 77.2027 66.0342ZM85.5702 71.1626Q84.4013 71.1626 83.4741 70.7407Q82.5468 70.3145 82.0063 69.5894Q81.4701 68.8599 81.4306 67.959L83.5575 67.959Q83.6103 68.5874 84.1596 69.0137Q84.7089 69.4355 85.5351 69.4355Q86.4008 69.4355 86.8754 69.1016Q87.3544 68.7676 87.3544 68.2446Q87.3544 67.6865 86.8227 67.4185Q86.2909 67.146 85.1396 66.8252Q84.0234 66.5176 83.3202 66.2319Q82.6215 65.9419 82.1074 65.3486Q81.5932 64.7554 81.5932 63.7842Q81.5932 62.9888 82.059 62.334Q82.5292 61.6748 83.3993 61.2969Q84.2739 60.9189 85.412 60.9189Q87.1039 60.9189 88.1367 61.7759Q89.1738 62.6284 89.2441 64.105L87.1918 64.105Q87.1391 63.4414 86.6513 63.0459Q86.1679 62.646 85.3373 62.646Q84.5287 62.646 84.0937 62.9536Q83.663 63.2612 83.663 63.7622Q83.663 64.1621 83.9487 64.4302Q84.2387 64.6982 84.6518 64.8521Q85.0693 65.0059 85.8779 65.2388Q86.9589 65.5288 87.6489 65.8276Q88.3432 66.1221 88.8486 66.6978Q89.3539 67.2734 89.3715 68.2271Q89.3715 69.0752 88.9013 69.7432Q88.4355 70.4067 87.5785 70.7847Q86.726 71.1626 85.5702 71.1626ZM102.763 71L99.8798 65.9946L98.3154 65.9946L98.3154 71L96.2631 71L96.2631 58.4888L100.583 58.4888Q102.024 58.4888 103.022 58.9941Q104.024 59.4995 104.516 60.3477Q105.013 61.1914 105.013 62.2329Q105.013 63.459 104.301 64.4565Q103.589 65.4541 102.112 65.8145L105.21 71L102.763 71ZM98.3154 64.3599L100.583 64.3599Q101.734 64.3599 102.319 63.7842Q102.908 63.2041 102.908 62.2329Q102.908 61.2617 102.328 60.7124Q101.752 60.1631 100.583 60.1631L98.3154 60.1631L98.3154 64.3599ZM116.731 65.7969Q116.731 66.355 116.657 66.8076L109.081 66.8076Q109.168 67.9941 109.959 68.7148Q110.755 69.4355 111.906 69.4355Q113.563 69.4355 114.244 68.0469L116.459 68.0469Q116.011 69.418 114.829 70.2925Q113.651 71.1626 111.906 71.1626Q110.482 71.1626 109.357 70.5254Q108.232 69.8838 107.595 68.7236Q106.958 67.5635 106.958 66.0342Q106.958 64.5005 107.578 63.3403Q108.197 62.1802 109.322 61.5518Q110.447 60.9189 111.906 60.9189Q113.308 60.9189 114.407 61.5342Q115.505 62.145 116.116 63.2524Q116.731 64.3599 116.731 65.7969ZM114.587 65.1509Q114.569 64.0171 113.778 63.3315Q112.987 62.646 111.814 62.646Q110.755 62.646 109.999 63.3228Q109.243 63.9995 109.098 65.1509L114.587 65.1509ZM122.582 69.1631L125.39 61.0815L127.565 61.0815L123.786 71L121.338 71L117.576 61.0815L119.773 61.0815L122.582 69.1631ZM130.159 59.7676Q129.601 59.7676 129.223 59.3896Q128.845 59.0117 128.845 58.4536Q128.845 57.8955 129.223 57.5176Q129.601 57.1396 130.159 57.1396Q130.7 57.1396 131.077 57.5176Q131.455 57.8955 131.455 58.4536Q131.455 59.0117 131.077 59.3896Q130.7 59.7676 130.159 59.7676ZM131.165 61.0815L131.165 71L129.113 71L129.113 61.0815L131.165 61.0815ZM142.957 65.7969Q142.957 66.355 142.883 66.8076L135.307 66.8076Q135.394 67.9941 136.185 68.7148Q136.981 69.4355 138.132 69.4355Q139.789 69.4355 140.47 68.0469L142.685 68.0469Q142.237 69.418 141.055 70.2925Q139.877 71.1626 138.132 71.1626Q136.708 71.1626 135.583 70.5254Q134.458 69.8838 133.821 68.7236Q133.184 67.5635 133.184 66.0342Q133.184 64.5005 133.804 63.3403Q134.423 62.1802 135.548 61.5518Q136.673 60.9189 138.132 60.9189Q139.534 60.9189 140.633 61.5342Q141.731 62.145 142.342 63.2524Q142.957 64.3599 142.957 65.7969ZM140.813 65.1509Q140.795 64.0171 140.004 63.3315Q139.213 62.646 138.04 62.646Q136.981 62.646 136.225 63.3228Q135.469 63.9995 135.324 65.1509L140.813 65.1509ZM158.291 61.0815L155.215 71L153.053 71L151.058 63.6743L149.058 71L146.896 71L143.802 61.0815L145.89 61.0815L147.959 69.0576L150.064 61.0815L152.209 61.0815L154.226 69.0181L156.274 61.0815L158.291 61.0815ZM168.913 65.7969Q168.913 66.355 168.839 66.8076L161.263 66.8076Q161.35 67.9941 162.141 68.7148Q162.937 69.4355 164.088 69.4355Q165.745 69.4355 166.426 68.0469L168.641 68.0469Q168.193 69.418 167.011 70.2925Q165.833 71.1626 164.088 71.1626Q162.664 71.1626 161.539 70.5254Q160.414 69.8838 159.777 68.7236Q159.14 67.5635 159.14 66.0342Q159.14 64.5005 159.76 63.3403Q160.379 62.1802 161.504 61.5518Q162.629 60.9189 164.088 60.9189Q165.49 60.9189 166.589 61.5342Q167.687 62.145 168.298 63.2524Q168.913 64.3599 168.913 65.7969ZM166.769 65.1509Q166.751 64.0171 165.96 63.3315Q165.169 62.646 163.996 62.646Q162.937 62.646 162.181 63.3228Q161.425 63.9995 161.28 65.1509L166.769 65.1509ZM170.246 65.9946Q170.246 64.5005 170.866 63.3491Q171.485 62.1978 172.558 61.5605Q173.63 60.9189 174.944 60.9189Q175.915 60.9189 176.86 61.3452Q177.805 61.7671 178.363 62.4658L178.363 57.6802L180.433 57.6802L180.433 71L178.363 71L178.363 69.5059Q177.857 70.2266 176.965 70.6968Q176.078 71.1626 174.926 71.1626Q173.63 71.1626 172.558 70.5078Q171.485 69.8486 170.866 68.6709Q170.246 67.4888 170.246 65.9946ZM178.363 66.0342Q178.363 65.0059 177.936 64.25Q177.515 63.4941 176.829 63.0986Q176.148 62.7031 175.357 62.7031Q174.566 62.7031 173.88 63.0898Q173.195 63.4766 172.773 64.2236Q172.351 64.9707 172.351 65.9946Q172.351 67.0229 172.773 67.7964Q173.195 68.5698 173.889 68.9741Q174.583 69.3784 175.357 69.3784Q176.148 69.3784 176.829 68.9829Q177.515 68.5874 177.936 67.8228Q178.363 67.0581 178.363 66.0342Z" fill="#FFFFFF" fill-opacity="1.000000" fill-rule="evenodd"/>
</svg>
