<svg width="111.483398" height="54.697266" viewBox="0 0 111.483 54.6973" fill="none" xmlns="http://www.w3.org/2000/svg" xmlns:xlink="http://www.w3.org/1999/xlink">
	<desc>
			Created with Pixso.
	</desc>
	<defs/>
	<path id="Available Date" d="M11.0391 15.0703L4.05469 15.0703L2.85938 18.4805L0 18.4805L5.97656 1.77539L9.14648 1.77539L15.123 18.4805L12.2402 18.4805L11.0391 15.0703ZM10.2715 12.8379L7.56445 5.08594L4.82812 12.8379L10.2715 12.8379ZM22.8276 16.0312L26.5718 5.25586L29.4721 5.25586L24.4331 18.4805L21.1694 18.4805L16.1538 5.25586L19.0835 5.25586L22.8276 16.0312ZM30.6282 11.8066Q30.6282 9.81445 31.4543 8.2793Q32.2805 6.74414 33.7102 5.89453Q35.1399 5.03906 36.8684 5.03906Q38.427 5.03906 39.5872 5.6543Q40.7532 6.26367 41.4504 7.17773L41.4504 5.25586L44.2102 5.25586L44.2102 18.4805L41.4504 18.4805L41.4504 16.5117Q40.7532 17.4492 39.552 18.0762Q38.3508 18.6973 36.8157 18.6973Q35.1165 18.6973 33.6985 17.8242Q32.2805 16.9453 31.4543 15.375Q30.6282 13.7988 30.6282 11.8066ZM41.4504 11.8594Q41.4504 10.4883 40.8821 9.48047Q40.3196 8.47266 39.4055 7.94531Q38.4973 7.41797 37.4426 7.41797Q36.3879 7.41797 35.4739 7.93359Q34.5598 8.44922 33.9973 9.44531Q33.4348 10.4414 33.4348 11.8066Q33.4348 13.1777 33.9973 14.209Q34.5598 15.2402 35.4856 15.7793Q36.4114 16.3184 37.4426 16.3184Q38.4973 16.3184 39.4055 15.791Q40.3196 15.2637 40.8821 14.2441Q41.4504 13.2246 41.4504 11.8594ZM49.2029 3.50391Q48.4588 3.50391 47.9549 3Q47.451 2.49609 47.451 1.75195Q47.451 1.00781 47.9549 0.503906Q48.4588 0 49.2029 0Q49.9236 0 50.4275 0.503906Q50.9314 1.00781 50.9314 1.75195Q50.9314 2.49609 50.4275 3Q49.9236 3.50391 49.2029 3.50391ZM50.5447 5.25586L50.5447 18.4805L47.8084 18.4805L47.8084 5.25586L50.5447 5.25586ZM56.8807 0.720703L56.8807 18.4805L54.1444 18.4805L54.1444 0.720703L56.8807 0.720703ZM59.5722 11.8066Q59.5722 9.81445 60.3983 8.2793Q61.2245 6.74414 62.6542 5.89453Q64.0839 5.03906 65.8124 5.03906Q67.371 5.03906 68.5312 5.6543Q69.6972 6.26367 70.3944 7.17773L70.3944 5.25586L73.1542 5.25586L73.1542 18.4805L70.3944 18.4805L70.3944 16.5117Q69.6972 17.4492 68.496 18.0762Q67.2948 18.6973 65.7597 18.6973Q64.0605 18.6973 62.6425 17.8242Q61.2245 16.9453 60.3983 15.375Q59.5722 13.7988 59.5722 11.8066ZM70.3944 11.8594Q70.3944 10.4883 69.8261 9.48047Q69.2636 8.47266 68.3495 7.94531Q67.4413 7.41797 66.3866 7.41797Q65.3319 7.41797 64.4179 7.93359Q63.5038 8.44922 62.9413 9.44531Q62.3788 10.4414 62.3788 11.8066Q62.3788 13.1777 62.9413 14.209Q63.5038 15.2402 64.4296 15.7793Q65.3554 16.3184 66.3866 16.3184Q67.4413 16.3184 68.3495 15.791Q69.2636 15.2637 69.8261 14.2441Q70.3944 13.2246 70.3944 11.8594ZM79.4887 7.22461Q80.186 6.26367 81.3989 5.6543Q82.6117 5.03906 84.1 5.03906Q85.852 5.03906 87.2641 5.88281Q88.6821 6.7207 89.4965 8.26758Q90.311 9.81445 90.311 11.8066Q90.311 13.7988 89.4965 15.375Q88.6821 16.9453 87.2524 17.8242Q85.8227 18.6973 84.1 18.6973Q82.559 18.6973 81.3696 18.0996Q80.186 17.4961 79.4887 16.5586L79.4887 18.4805L76.7524 18.4805L76.7524 0.720703L79.4887 0.720703L79.4887 7.22461ZM87.5278 11.8066Q87.5278 10.4414 86.9653 9.44531Q86.4028 8.44922 85.477 7.93359Q84.5512 7.41797 83.4965 7.41797Q82.4653 7.41797 81.5395 7.94531Q80.6196 8.47266 80.0512 9.48047Q79.4887 10.4883 79.4887 11.8594Q79.4887 13.2246 80.0512 14.2441Q80.6196 15.2637 81.5395 15.791Q82.4653 16.3184 83.4965 16.3184Q84.5512 16.3184 85.477 15.7793Q86.4028 15.2402 86.9653 14.209Q87.5278 13.1777 87.5278 11.8066ZM95.7607 0.720703L95.7607 18.4805L93.0244 18.4805L93.0244 0.720703L95.7607 0.720703ZM111.483 11.543Q111.483 12.2871 111.384 12.8906L101.282 12.8906Q101.399 14.4727 102.454 15.4336Q103.515 16.3945 105.05 16.3945Q107.259 16.3945 108.167 14.543L111.12 14.543Q110.522 16.3711 108.946 17.5371Q107.376 18.6973 105.05 18.6973Q103.151 18.6973 101.651 17.8477Q100.151 16.9922 99.3018 15.4453Q98.4522 13.8984 98.4522 11.8594Q98.4522 9.81445 99.2783 8.26758Q100.105 6.7207 101.605 5.88281Q103.105 5.03906 105.05 5.03906Q106.919 5.03906 108.384 5.85938Q109.849 6.67383 110.663 8.15039Q111.483 9.62695 111.483 11.543ZM108.624 10.6816Q108.601 9.16992 107.546 8.25586Q106.491 7.3418 104.927 7.3418Q103.515 7.3418 102.507 8.24414Q101.499 9.14648 101.306 10.6816L108.624 10.6816ZM6.43359 37.7988Q9.09961 37.7988 11.1035 38.8184Q13.1074 39.8379 14.1973 41.748Q15.2871 43.6582 15.2871 46.2012Q15.2871 48.7441 14.1973 50.6191Q13.1074 52.4883 11.1035 53.4844Q9.09961 54.4805 6.43359 54.4805L0.984375 54.4805L0.984375 37.7988L6.43359 37.7988ZM6.43359 52.248Q9.36328 52.248 10.9219 50.666Q12.4805 49.0781 12.4805 46.2012Q12.4805 43.2949 10.9219 41.666Q9.36328 40.0312 6.43359 40.0312L3.7207 40.0312L3.7207 52.248L6.43359 52.248ZM17.0922 47.8066Q17.0922 45.8145 17.9183 44.2793Q18.7445 42.7441 20.1742 41.8945Q21.6039 41.0391 23.3324 41.0391Q24.891 41.0391 26.0512 41.6543Q27.2172 42.2637 27.9144 43.1777L27.9144 41.2559L30.6742 41.2559L30.6742 54.4805L27.9144 54.4805L27.9144 52.5117Q27.2172 53.4492 26.016 54.0762Q24.8148 54.6973 23.2797 54.6973Q21.5805 54.6973 20.1625 53.8242Q18.7445 52.9453 17.9183 51.375Q17.0922 49.7988 17.0922 47.8066ZM27.9144 47.8594Q27.9144 46.4883 27.3461 45.4805Q26.7836 44.4727 25.8695 43.9453Q24.9613 43.418 23.9066 43.418Q22.8519 43.418 21.9379 43.9336Q21.0238 44.4492 20.4613 45.4453Q19.8988 46.4414 19.8988 47.8066Q19.8988 49.1777 20.4613 50.209Q21.0238 51.2402 21.9496 51.7793Q22.8754 52.3184 23.9066 52.3184Q24.9613 52.3184 25.8695 51.791Q26.7836 51.2637 27.3461 50.2441Q27.9144 49.2246 27.9144 47.8594ZM37.4657 43.4883L37.4657 50.8066Q37.4657 51.5508 37.8114 51.8789Q38.163 52.2012 39.0009 52.2012L40.6825 52.2012L40.6825 54.4805L38.5204 54.4805Q36.6747 54.4805 35.6903 53.6191Q34.706 52.752 34.706 50.8066L34.706 43.4883L33.1474 43.4883L33.1474 41.2559L34.706 41.2559L34.706 37.9688L37.4657 37.9688L37.4657 41.2559L40.6825 41.2559L40.6825 43.4883L37.4657 43.4883ZM55.3234 47.543Q55.3234 48.2871 55.2238 48.8906L45.1223 48.8906Q45.2394 50.4727 46.2941 51.4336Q47.3547 52.3945 48.8898 52.3945Q51.0988 52.3945 52.007 50.543L54.9601 50.543Q54.3625 52.3711 52.7863 53.5371Q51.216 54.6973 48.8898 54.6973Q46.9914 54.6973 45.4914 53.8477Q43.9914 52.9922 43.1418 51.4453Q42.2922 49.8984 42.2922 47.8594Q42.2922 45.8145 43.1183 44.2676Q43.9445 42.7207 45.4445 41.8828Q46.9445 41.0391 48.8898 41.0391Q50.759 41.0391 52.2238 41.8594Q53.6887 42.6738 54.5031 44.1504Q55.3234 45.627 55.3234 47.543ZM52.4641 46.6816Q52.4406 45.1699 51.3859 44.2559Q50.3312 43.3418 48.7668 43.3418Q47.3547 43.3418 46.3469 44.2441Q45.3391 45.1465 45.1457 46.6816L52.4641 46.6816Z" fill="#FFFFFF" fill-opacity="1.000000" fill-rule="evenodd"/>
</svg>
