<svg width="156.000000" height="78.000000" viewBox="0 0 156 78" fill="none" xmlns="http://www.w3.org/2000/svg" xmlns:xlink="http://www.w3.org/1999/xlink">
	<desc>
			Created with Pixso.
	</desc>
	<defs/>
	<path id="15,500++" d="M1.52734 15.75L1.52734 12.2139L8.59961 12.2139L8.59961 37L4.68994 37L4.68994 15.75L1.52734 15.75ZM29.921 15.5425L18.5323 15.5425L18.5323 22.3159Q19.2462 21.3613 20.6573 20.7139Q22.0685 20.0664 23.6622 20.0664Q26.5177 20.0664 28.3023 21.2949Q30.087 22.5151 30.8507 24.3911Q31.6227 26.2588 31.6227 28.334Q31.6227 30.8491 30.6515 32.8081Q29.6803 34.7588 27.7545 35.8794Q25.837 37 23.048 37Q19.3458 37 17.0963 35.1655Q14.8551 33.3311 14.4151 30.3013L18.192 30.3013Q18.5655 31.9033 19.8521 32.8413Q21.1471 33.771 23.0895 33.771Q25.4967 33.771 26.7003 32.3101Q27.9122 30.8491 27.9122 28.4336Q27.9122 25.9849 26.6837 24.6816Q25.4635 23.3701 23.0895 23.3701Q21.421 23.3701 20.2755 24.2002Q19.1383 25.0303 18.6319 26.458L14.963 26.458L14.963 12.1475L29.921 12.1475L29.921 15.5425ZM40.4243 32.3433L36.3155 41.7231L33.792 41.7231L36.2075 32.3433L40.4243 32.3433ZM59.297 15.5425L47.9083 15.5425L47.9083 22.3159Q48.6222 21.3613 50.0333 20.7139Q51.4445 20.0664 53.0382 20.0664Q55.8937 20.0664 57.6783 21.2949Q59.463 22.5151 60.2267 24.3911Q60.9987 26.2588 60.9987 28.334Q60.9987 30.8491 60.0275 32.8081Q59.0563 34.7588 57.1305 35.8794Q55.213 37 52.424 37Q48.7218 37 46.4723 35.1655Q44.2311 33.3311 43.7911 30.3013L47.568 30.3013Q47.9415 31.9033 49.2282 32.8413Q50.5231 33.771 52.4655 33.771Q54.8727 33.771 56.0763 32.3101Q57.2882 30.8491 57.2882 28.4336Q57.2882 25.9849 56.0597 24.6816Q54.8395 23.3701 52.4655 23.3701Q50.797 23.3701 49.6515 24.2002Q48.5143 25.0303 48.0079 26.458L44.339 26.458L44.339 12.1475L59.297 12.1475L59.297 15.5425ZM65.044 24.2832Q65.044 18.3979 67.0279 15.0859Q69.0201 11.7739 73.8843 11.7739Q78.7403 11.7739 80.7325 15.0859Q82.7247 18.3979 82.7247 24.2832Q82.7247 30.2349 80.7325 33.5884Q78.7403 36.9336 73.8843 36.9336Q69.0201 36.9336 67.0279 33.5884Q65.044 30.2349 65.044 24.2832ZM78.9146 24.2832Q78.9146 21.5273 78.5577 19.6265Q78.2007 17.7256 77.1133 16.522Q76.0259 15.3101 73.8843 15.3101Q71.7427 15.3101 70.6553 16.522Q69.5679 17.7256 69.211 19.6265Q68.8541 21.5273 68.8541 24.2832Q68.8541 27.1387 69.1861 29.0811Q69.5264 31.0151 70.6304 32.2104Q71.7427 33.3975 73.8843 33.3975Q76.0259 33.3975 77.1299 32.2104Q78.2339 31.0151 78.5743 29.0811Q78.9146 27.1387 78.9146 24.2832ZM86.838 24.2832Q86.838 18.3979 88.8219 15.0859Q90.8141 11.7739 95.6783 11.7739Q100.534 11.7739 102.526 15.0859Q104.519 18.3979 104.519 24.2832Q104.519 30.2349 102.526 33.5884Q100.534 36.9336 95.6783 36.9336Q90.8141 36.9336 88.8219 33.5884Q86.838 30.2349 86.838 24.2832ZM100.709 24.2832Q100.709 21.5273 100.352 19.6265Q99.9947 17.7256 98.9073 16.522Q97.8199 15.3101 95.6783 15.3101Q93.5367 15.3101 92.4493 16.522Q91.3619 17.7256 91.005 19.6265Q90.6481 21.5273 90.6481 24.2832Q90.6481 27.1387 90.9801 29.0811Q91.3204 31.0151 92.4244 32.2104Q93.5367 33.3975 95.6783 33.3975Q97.8199 33.3975 98.9239 32.2104Q100.028 31.0151 100.368 29.0811Q100.709 27.1387 100.709 24.2832ZM127.4 26.3584L120.527 26.3584L120.527 33.3975L116.924 33.3975L116.924 26.3584L110.06 26.3584L110.06 23.0962L116.924 23.0962L116.924 16.0571L120.527 16.0571L120.527 23.0962L127.4 23.0962L127.4 26.3584ZM151.676 26.3584L144.803 26.3584L144.803 33.3975L141.2 33.3975L141.2 26.3584L134.336 26.3584L134.336 23.0962L141.2 23.0962L141.2 16.0571L144.803 16.0571L144.803 23.0962L151.676 23.0962L151.676 26.3584Z" fill="#FFFFFF" fill-opacity="1.000000" fill-rule="evenodd"/>
	<path id="Finished Project" d="M8.70996 58.4888L8.70996 60.1631L3.40137 60.1631L3.40137 63.8545L7.54102 63.8545L7.54102 65.5288L3.40137 65.5288L3.40137 71L1.34912 71L1.34912 58.4888L8.70996 58.4888ZM11.665 59.7676Q11.1069 59.7676 10.729 59.3896Q10.3511 59.0117 10.3511 58.4536Q10.3511 57.8955 10.729 57.5176Q11.1069 57.1396 11.665 57.1396Q12.2055 57.1396 12.5835 57.5176Q12.9614 57.8955 12.9614 58.4536Q12.9614 59.0117 12.5835 59.3896Q12.2055 59.7676 11.665 59.7676ZM12.6714 61.0815L12.6714 71L10.6191 71L10.6191 61.0815L12.6714 61.0815ZM20.3765 60.9189Q21.5454 60.9189 22.4727 61.4067Q23.3999 61.8901 23.9229 62.8481Q24.4458 63.8018 24.4458 65.1509L24.4458 71L22.4112 71L22.4112 65.4541Q22.4112 64.1226 21.7432 63.415Q21.0796 62.7031 19.9239 62.7031Q18.7725 62.7031 18.0957 63.415Q17.4234 64.1226 17.4234 65.4541L17.4234 71L15.3711 71L15.3711 61.0815L17.4234 61.0815L17.4234 62.2153Q17.9287 61.6045 18.711 61.2617Q19.4932 60.9189 20.3765 60.9189ZM28.099 59.7676Q27.5409 59.7676 27.163 59.3896Q26.7851 59.0117 26.7851 58.4536Q26.7851 57.8955 27.163 57.5176Q27.5409 57.1396 28.099 57.1396Q28.6395 57.1396 29.0175 57.5176Q29.3954 57.8955 29.3954 58.4536Q29.3954 59.0117 29.0175 59.3896Q28.6395 59.7676 28.099 59.7676ZM29.1054 61.0815L29.1054 71L27.0531 71L27.0531 61.0815L29.1054 61.0815ZM35.4042 71.1626Q34.2353 71.1626 33.308 70.7407Q32.3808 70.3145 31.8403 69.5894Q31.3041 68.8599 31.2646 67.959L33.3915 67.959Q33.4443 68.5874 33.9936 69.0137Q34.5429 69.4355 35.3691 69.4355Q36.2348 69.4355 36.7094 69.1016Q37.1884 68.7676 37.1884 68.2446Q37.1884 67.6865 36.6567 67.4185Q36.1249 67.146 34.9736 66.8252Q33.8574 66.5176 33.1542 66.2319Q32.4555 65.9419 31.9413 65.3486Q31.4272 64.7554 31.4272 63.7842Q31.4272 62.9888 31.893 62.334Q32.3632 61.6748 33.2333 61.2969Q34.1079 60.9189 35.246 60.9189Q36.9379 60.9189 37.9706 61.7759Q39.0078 62.6284 39.0781 64.105L37.0258 64.105Q36.9731 63.4414 36.4853 63.0459Q36.0019 62.646 35.1713 62.646Q34.3627 62.646 33.9277 62.9536Q33.497 63.2612 33.497 63.7622Q33.497 64.1621 33.7827 64.4302Q34.0727 64.6982 34.4858 64.8521Q34.9033 65.0059 35.7119 65.2388Q36.7929 65.5288 37.4829 65.8276Q38.1772 66.1221 38.6826 66.6978Q39.1879 67.2734 39.2055 68.2271Q39.2055 69.0752 38.7353 69.7432Q38.2695 70.4067 37.4125 70.7847Q36.56 71.1626 35.4042 71.1626ZM46.5499 60.9189Q47.6837 60.9189 48.5714 61.4067Q49.4635 61.8901 49.9777 62.8481Q50.4918 63.8018 50.4918 65.1509L50.4918 71L48.4572 71L48.4572 65.4541Q48.4572 64.1226 47.7892 63.415Q47.1256 62.7031 45.9699 62.7031Q44.8185 62.7031 44.1417 63.415Q43.4694 64.1226 43.4694 65.4541L43.4694 71L41.4171 71L41.4171 57.6802L43.4694 57.6802L43.4694 62.2329Q43.9923 61.6045 44.7921 61.2617Q45.5919 60.9189 46.5499 60.9189ZM62.1914 65.7969Q62.1914 66.355 62.1167 66.8076L54.5405 66.8076Q54.6284 67.9941 55.4194 68.7148Q56.2148 69.4355 57.3662 69.4355Q59.0229 69.4355 59.7041 68.0469L61.9189 68.0469Q61.4707 69.418 60.2886 70.2925Q59.1108 71.1626 57.3662 71.1626Q55.9424 71.1626 54.8174 70.5254Q53.6924 69.8838 53.0552 68.7236Q52.418 67.5635 52.418 66.0342Q52.418 64.5005 53.0376 63.3403Q53.6572 62.1802 54.7822 61.5518Q55.9072 60.9189 57.3662 60.9189Q58.7681 60.9189 59.8667 61.5342Q60.9653 62.145 61.5762 63.2524Q62.1914 64.3599 62.1914 65.7969ZM60.0469 65.1509Q60.0293 64.0171 59.2383 63.3315Q58.4473 62.646 57.2739 62.646Q56.2148 62.646 55.459 63.3228Q54.7031 63.9995 54.5581 65.1509L60.0469 65.1509ZM63.524 65.9946Q63.524 64.5005 64.1436 63.3491Q64.7632 62.1978 65.8355 61.5605Q66.9078 60.9189 68.2217 60.9189Q69.1929 60.9189 70.1377 61.3452Q71.0826 61.7671 71.6407 62.4658L71.6407 57.6802L73.7105 57.6802L73.7105 71L71.6407 71L71.6407 69.5059Q71.1353 70.2266 70.2432 70.6968Q69.3555 71.1626 68.2041 71.1626Q66.9078 71.1626 65.8355 70.5078Q64.7632 69.8486 64.1436 68.6709Q63.524 67.4888 63.524 65.9946ZM71.6407 66.0342Q71.6407 65.0059 71.2144 64.25Q70.7925 63.4941 70.107 63.0986Q69.4258 62.7031 68.6348 62.7031Q67.8438 62.7031 67.1582 63.0898Q66.4727 63.4766 66.0508 64.2236Q65.6289 64.9707 65.6289 65.9946Q65.6289 67.0229 66.0508 67.7964Q66.4727 68.5698 67.167 68.9741Q67.8614 69.3784 68.6348 69.3784Q69.4258 69.3784 70.107 68.9829Q70.7925 68.5874 71.2144 67.8228Q71.6407 67.0581 71.6407 66.0342ZM89.8386 62.2153Q89.8386 63.1689 89.386 64.0171Q88.9378 64.8608 87.9446 65.3926Q86.9558 65.9243 85.4089 65.9243L83.1414 65.9243L83.1414 71L81.0891 71L81.0891 58.4888L85.4089 58.4888Q86.8503 58.4888 87.8479 58.9854Q88.8499 59.4819 89.342 60.3301Q89.8386 61.1738 89.8386 62.2153ZM85.4089 64.25Q86.5779 64.25 87.1536 63.7183Q87.7337 63.1865 87.7337 62.2153Q87.7337 60.1631 85.4089 60.1631L83.1414 60.1631L83.1414 64.25L85.4089 64.25ZM93.8514 62.5229Q94.304 61.7671 95.0511 61.3452Q95.7981 60.9189 96.8221 60.9189L96.8221 63.0459L96.2991 63.0459Q95.095 63.0459 94.471 63.6567Q93.8514 64.2676 93.8514 65.7793L93.8514 71L91.7991 71L91.7991 61.0815L93.8514 61.0815L93.8514 62.5229ZM103.013 71.1626Q101.612 71.1626 100.478 70.5254Q99.3439 69.8838 98.6935 68.7236Q98.0475 67.5635 98.0475 66.0342Q98.0475 64.5181 98.7111 63.3491Q99.3791 62.1802 100.53 61.5518Q101.682 60.9189 103.106 60.9189Q104.525 60.9189 105.676 61.5518Q106.828 62.1802 107.496 63.3491Q108.164 64.5181 108.164 66.0342Q108.164 67.5459 107.478 68.7148Q106.793 69.8838 105.615 70.5254Q104.437 71.1626 103.013 71.1626ZM103.013 69.3784Q103.804 69.3784 104.499 69.0005Q105.193 68.6226 105.624 67.8667Q106.054 67.1108 106.054 66.0342Q106.054 64.9531 105.641 64.2061Q105.228 63.459 104.543 63.0811Q103.862 62.7031 103.066 62.7031Q102.275 62.7031 101.598 63.0811Q100.926 63.459 100.53 64.2061Q100.135 64.9531 100.135 66.0342Q100.135 67.6338 100.952 68.5083Q101.774 69.3784 103.013 69.3784ZM111.241 59.7676Q110.683 59.7676 110.305 59.3896Q109.927 59.0117 109.927 58.4536Q109.927 57.8955 110.305 57.5176Q110.683 57.1396 111.241 57.1396Q111.782 57.1396 112.159 57.5176Q112.537 57.8955 112.537 58.4536Q112.537 59.0117 112.159 59.3896Q111.782 59.7676 111.241 59.7676ZM112.247 72.9424Q112.247 74.4014 111.518 75.0562Q110.788 75.7153 109.404 75.7153L108.341 75.7153L108.341 73.9883L109.044 73.9883Q109.672 73.9883 109.931 73.7422Q110.195 73.5005 110.195 72.9424L110.195 61.0815L112.247 61.0815L112.247 72.9424ZM124.039 65.7969Q124.039 66.355 123.965 66.8076L116.389 66.8076Q116.476 67.9941 117.267 68.7148Q118.063 69.4355 119.214 69.4355Q120.871 69.4355 121.552 68.0469L123.767 68.0469Q123.319 69.418 122.137 70.2925Q120.959 71.1626 119.214 71.1626Q117.79 71.1626 116.665 70.5254Q115.54 69.8838 114.903 68.7236Q114.266 67.5635 114.266 66.0342Q114.266 64.5005 114.886 63.3403Q115.505 62.1802 116.63 61.5518Q117.755 60.9189 119.214 60.9189Q120.616 60.9189 121.715 61.5342Q122.813 62.145 123.424 63.2524Q124.039 64.3599 124.039 65.7969ZM121.895 65.1509Q121.877 64.0171 121.086 63.3315Q120.295 62.646 119.122 62.646Q118.063 62.646 117.307 63.3228Q116.551 63.9995 116.406 65.1509L121.895 65.1509ZM125.372 66.0342Q125.372 64.5005 125.992 63.3403Q126.611 62.1802 127.71 61.5518Q128.809 60.9189 130.228 60.9189Q132.03 60.9189 133.207 61.7759Q134.39 62.6284 134.803 64.2148L132.588 64.2148Q132.32 63.4766 131.722 63.0635Q131.129 62.646 130.228 62.646Q128.971 62.646 128.224 63.5381Q127.477 64.4302 127.477 66.0342Q127.477 67.6338 128.224 68.5347Q128.971 69.4355 130.228 69.4355Q132.012 69.4355 132.588 67.8667L134.803 67.8667Q134.372 69.3784 133.181 70.2705Q131.995 71.1626 130.228 71.1626Q128.809 71.1626 127.71 70.5254Q126.611 69.8838 125.992 68.7236Q125.372 67.5635 125.372 66.0342ZM139.248 62.7559L139.248 68.2446Q139.248 68.8027 139.507 69.0488Q139.771 69.2905 140.4 69.2905L141.661 69.2905L141.661 71L140.039 71Q138.655 71 137.917 70.354Q137.178 69.7036 137.178 68.2446L137.178 62.7559L136.009 62.7559L136.009 61.0815L137.178 61.0815L137.178 58.6162L139.248 58.6162L139.248 61.0815L141.661 61.0815L141.661 62.7559L139.248 62.7559Z" fill="#FFFFFF" fill-opacity="1.000000" fill-rule="evenodd"/>
</svg>
