<svg width="172.480011" height="23.968750" viewBox="0 0 172.48 23.9688" fill="none" xmlns="http://www.w3.org/2000/svg" xmlns:xlink="http://www.w3.org/1999/xlink">
	<desc>
			Created with Pixso.
	</desc>
	<defs/>
	<path id="Read more" d="M11.75 23.6797L6.4375 14.5625L2.91406 14.5625L2.91406 23.6797L0 23.6797L0 1.375L7.20312 1.375Q9.73438 1.375 11.4766 2.24219Q13.2188 3.10156 14.0781 4.57812Q14.9453 6.04688 14.9453 7.9375Q14.9453 10.2422 13.6172 12Q12.2891 13.7578 9.63281 14.3359L15.2344 23.6797L11.75 23.6797ZM2.91406 12.2266L7.20312 12.2266Q9.57031 12.2266 10.75 11.0625Q11.9375 9.89062 11.9375 7.9375Q11.9375 5.95312 10.7656 4.86719Q9.60156 3.77344 7.20312 3.77344L2.91406 3.77344L2.91406 12.2266ZM35.456 14.2422Q35.456 15.0703 35.3623 16L21.3466 16Q21.5107 18.5938 23.1201 20.0469Q24.7373 21.5 27.0419 21.5Q28.9326 21.5 30.1904 20.625Q31.456 19.7422 31.9716 18.2734L35.1044 18.2734Q34.4013 20.7969 32.2919 22.3828Q30.1826 23.9688 27.0419 23.9688Q24.5498 23.9688 22.581 22.8516Q20.6123 21.7266 19.4873 19.6641Q18.3701 17.6016 18.3701 14.8828Q18.3701 12.1562 19.456 10.1094Q20.5498 8.0625 22.5107 6.96094Q24.4794 5.85938 27.0419 5.85938Q29.5419 5.85938 31.456 6.94531Q33.3779 8.03125 34.4169 9.9375Q35.456 11.8359 35.456 14.2422ZM32.4482 13.6328Q32.4482 11.9688 31.7138 10.7734Q30.9794 9.57031 29.7138 8.94531Q28.4482 8.32031 26.9169 8.32031Q24.706 8.32031 23.1513 9.72656Q21.6044 11.1328 21.3779 13.6328L32.4482 13.6328ZM38.2101 14.8516Q38.2101 12.1562 39.296 10.125Q40.3898 8.09375 42.2882 6.97656Q44.1944 5.85938 46.5304 5.85938Q48.8351 5.85938 50.5304 6.85156Q52.2257 7.83594 53.0616 9.34375L53.0616 6.14062L55.9991 6.14062L55.9991 23.6797L53.0616 23.6797L53.0616 20.4141Q52.1944 21.9531 50.4835 22.9609Q48.7726 23.9688 46.4991 23.9688Q44.1632 23.9688 42.2726 22.8203Q40.3898 21.6641 39.296 19.5859Q38.2101 17.5 38.2101 14.8516ZM53.0616 14.8828Q53.0616 12.8984 52.2569 11.4297Q51.4601 9.95312 50.1007 9.17188Q48.7413 8.38281 47.1085 8.38281Q45.4757 8.38281 44.1319 9.15625Q42.7882 9.92188 41.9835 11.3984Q41.1866 12.8672 41.1866 14.8516Q41.1866 16.8672 41.9835 18.3516Q42.7882 19.8359 44.1319 20.625Q45.4757 21.4062 47.1085 21.4062Q48.7413 21.4062 50.1007 20.625Q51.4601 19.8359 52.2569 18.3516Q53.0616 16.8672 53.0616 14.8828ZM59.8421 14.8516Q59.8421 12.1562 60.928 10.125Q62.0218 8.09375 63.9202 6.97656Q65.8264 5.85938 68.1936 5.85938Q70.2405 5.85938 71.9983 6.80469Q73.7639 7.74219 74.6936 9.28125L74.6936 0L77.6311 0L77.6311 23.6797L74.6936 23.6797L74.6936 20.3828Q73.8264 21.9531 72.1311 22.9609Q70.4358 23.9688 68.1624 23.9688Q65.8264 23.9688 63.9202 22.8203Q62.0218 21.6641 60.928 19.5859Q59.8421 17.5 59.8421 14.8516ZM74.6936 14.8828Q74.6936 12.8984 73.8889 11.4297Q73.0921 9.95312 71.7327 9.17188Q70.3733 8.38281 68.7405 8.38281Q67.1077 8.38281 65.7639 9.15625Q64.4202 9.92188 63.6155 11.3984Q62.8186 12.8672 62.8186 14.8516Q62.8186 16.8672 63.6155 18.3516Q64.4202 19.8359 65.7639 20.625Q67.1077 21.4062 68.7405 21.4062Q70.3733 21.4062 71.7327 20.625Q73.0921 19.8359 73.8889 18.3516Q74.6936 16.8672 74.6936 14.8828ZM112.198 5.82031Q114.245 5.82031 115.838 6.67188Q117.44 7.52344 118.37 9.21875Q119.299 10.9141 119.299 13.3438L119.299 23.6797L116.417 23.6797L116.417 13.7578Q116.417 11.1328 115.12 9.74219Q113.831 8.35156 111.62 8.35156Q109.346 8.35156 108.002 9.8125Q106.659 11.2656 106.659 14.0156L106.659 23.6797L103.776 23.6797L103.776 13.7578Q103.776 11.1328 102.479 9.74219Q101.19 8.35156 98.979 8.35156Q96.7056 8.35156 95.3618 9.8125Q94.0181 11.2656 94.0181 14.0156L94.0181 23.6797L91.104 23.6797L91.104 6.14062L94.0181 6.14062L94.0181 8.67188Q94.8853 7.29688 96.3384 6.5625Q97.7915 5.82031 99.5571 5.82031Q101.76 5.82031 103.456 6.8125Q105.159 7.80469 105.987 9.72656Q106.721 7.875 108.417 6.85156Q110.112 5.82031 112.198 5.82031ZM131.712 23.9688Q129.252 23.9688 127.252 22.8516Q125.252 21.7266 124.111 19.6641Q122.978 17.6016 122.978 14.8828Q122.978 12.1953 124.142 10.1328Q125.314 8.0625 127.33 6.96094Q129.345 5.85938 131.845 5.85938Q134.337 5.85938 136.353 6.96094Q138.369 8.0625 139.533 10.1094Q140.705 12.1562 140.705 14.8828Q140.705 17.6016 139.502 19.6641Q138.306 21.7266 136.259 22.8516Q134.212 23.9688 131.712 23.9688ZM131.712 21.4062Q133.283 21.4062 134.658 20.6719Q136.033 19.9375 136.877 18.4688Q137.728 16.9922 137.728 14.8828Q137.728 12.7656 136.892 11.2969Q136.064 9.82031 134.72 9.10156Q133.377 8.38281 131.814 8.38281Q130.212 8.38281 128.884 9.10156Q127.556 9.82031 126.752 11.2969Q125.955 12.7656 125.955 14.8828Q125.955 17.0234 126.736 18.5Q127.525 19.9688 128.837 20.6875Q130.15 21.4062 131.712 21.4062ZM147.458 8.99219Q148.224 7.48438 149.646 6.65625Q151.075 5.82031 153.122 5.82031L153.122 8.82812L152.357 8.82812Q147.458 8.82812 147.458 14.1406L147.458 23.6797L144.544 23.6797L144.544 6.14062L147.458 6.14062L147.458 8.99219ZM172.48 14.2422Q172.48 15.0703 172.386 16L158.371 16Q158.535 18.5938 160.144 20.0469Q161.761 21.5 164.066 21.5Q165.957 21.5 167.214 20.625Q168.48 19.7422 168.996 18.2734L172.128 18.2734Q171.425 20.7969 169.316 22.3828Q167.207 23.9688 164.066 23.9688Q161.574 23.9688 159.605 22.8516Q157.636 21.7266 156.511 19.6641Q155.394 17.6016 155.394 14.8828Q155.394 12.1562 156.48 10.1094Q157.574 8.0625 159.535 6.96094Q161.503 5.85938 164.066 5.85938Q166.566 5.85938 168.48 6.94531Q170.402 8.03125 171.441 9.9375Q172.48 11.8359 172.48 14.2422ZM169.472 13.6328Q169.472 11.9688 168.738 10.7734Q168.003 9.57031 166.738 8.94531Q165.472 8.32031 163.941 8.32031Q161.73 8.32031 160.175 9.72656Q158.628 11.1328 158.402 13.6328L169.472 13.6328Z" fill="#000000" fill-opacity="1.000000" fill-rule="evenodd"/>
</svg>
