<svg width="149.769775" height="39.000000" viewBox="0 0 149.77 39" fill="none" xmlns="http://www.w3.org/2000/svg" xmlns:xlink="http://www.w3.org/1999/xlink">
	<desc>
			Created with Pixso.
	</desc>
	<defs/>
	<path id="Get Start" d="M15.0249 16.127Q14.3267 14.7749 13.0762 14.0894Q11.832 13.3975 10.1943 13.3975Q8.39795 13.3975 6.99512 14.2036Q5.59229 15.0098 4.79883 16.4951Q4.00537 17.9741 4.00537 19.9229Q4.00537 21.8779 4.79883 23.376Q5.59229 24.8677 6.99512 25.6738Q8.39795 26.48 10.1943 26.48Q12.6128 26.48 14.1172 25.1279Q15.6279 23.7759 15.9644 21.459L9.17871 21.459L9.17871 19.0913L19.1382 19.0913L19.1382 21.4082Q18.8525 23.5156 17.6401 25.2866Q16.4341 27.0513 14.4917 28.105Q12.5557 29.1587 10.1943 29.1587Q7.64258 29.1587 5.53516 27.978Q3.43408 26.791 2.19629 24.6836Q0.964844 22.5762 0.964844 19.9229Q0.964844 17.2759 2.19629 15.1685Q3.43408 13.061 5.54785 11.8804Q7.66797 10.6934 10.1943 10.6934Q13.0762 10.6934 15.3232 12.1152Q17.5767 13.5308 18.5923 16.127L15.0249 16.127ZM35.18 21.4844Q35.18 22.2905 35.0721 22.9443L24.1288 22.9443Q24.2557 24.6582 25.3983 25.6992Q26.5472 26.7402 28.2103 26.7402Q30.6034 26.7402 31.5873 24.7344L34.7865 24.7344Q34.139 26.7148 32.4315 27.978Q30.7303 29.2349 28.2103 29.2349Q26.1537 29.2349 24.5287 28.3145Q22.9037 27.3877 21.9833 25.7119Q21.0628 24.0361 21.0628 21.8271Q21.0628 19.6118 21.9579 17.936Q22.8529 16.2603 24.4779 15.3525Q26.1029 14.4385 28.2103 14.4385Q30.2352 14.4385 31.8221 15.3271Q33.409 16.2095 34.2914 17.8091Q35.18 19.4087 35.18 21.4844ZM32.0824 20.5513Q32.057 18.9136 30.9144 17.9233Q29.7718 16.9331 28.077 16.9331Q26.5472 16.9331 25.4554 17.9106Q24.3636 18.8882 24.1542 20.5513L32.0824 20.5513ZM41.5482 17.0918L41.5482 25.02Q41.5482 25.8262 41.9227 26.1816Q42.3036 26.5308 43.2113 26.5308L45.0331 26.5308L45.0331 29L42.6908 29Q40.6913 29 39.6249 28.0669Q38.5585 27.1274 38.5585 25.02L38.5585 17.0918L36.87 17.0918L36.87 14.6733L38.5585 14.6733L38.5585 11.1123L41.5482 11.1123L41.5482 14.6733L45.0331 14.6733L45.0331 17.0918L41.5482 17.0918ZM60.4748 29.1841Q58.6531 29.1841 57.1994 28.5493Q55.7458 27.9082 54.9143 26.7402Q54.0827 25.5659 54.0827 24.0107L57.2502 24.0107Q57.3581 25.1787 58.177 25.9341Q58.9958 26.6831 60.4748 26.6831Q62.011 26.6831 62.8679 25.9468Q63.7248 25.2041 63.7248 24.0361Q63.7248 23.1221 63.1916 22.5508Q62.6584 21.9795 61.865 21.6685Q61.0715 21.3574 59.6687 20.9893Q57.904 20.5259 56.7995 20.0435Q55.695 19.561 54.9143 18.5518Q54.1335 17.5361 54.1335 15.8413Q54.1335 14.2861 54.9143 13.1182Q55.695 11.9438 57.0979 11.3218Q58.5007 10.6934 60.3479 10.6934Q62.9695 10.6934 64.6452 12.0073Q66.3274 13.3213 66.5051 15.6128L63.2297 15.6128Q63.1535 14.6226 62.2966 13.9243Q61.4397 13.2197 60.0368 13.2197Q58.761 13.2197 57.9548 13.8735Q57.1487 14.521 57.1487 15.7397Q57.1487 16.5713 57.6565 17.1045Q58.1643 17.6377 58.9387 17.9487Q59.7195 18.2598 61.0715 18.6279Q62.8679 19.123 63.9978 19.6182Q65.1277 20.1069 65.9211 21.1353Q66.7146 22.1636 66.7146 23.8774Q66.7146 25.2549 65.9719 26.48Q65.2356 27.6987 63.8137 28.4414Q62.3982 29.1841 60.4748 29.1841ZM73.6842 17.0918L73.6842 25.02Q73.6842 25.8262 74.0587 26.1816Q74.4396 26.5308 75.3473 26.5308L77.1691 26.5308L77.1691 29L74.8268 29Q72.8273 29 71.7609 28.0669Q70.6945 27.1274 70.6945 25.02L70.6945 17.0918L69.006 17.0918L69.006 14.6733L70.6945 14.6733L70.6945 11.1123L73.6842 11.1123L73.6842 14.6733L77.1691 14.6733L77.1691 17.0918L73.6842 17.0918ZM78.9128 21.77Q78.9128 19.6118 79.8079 17.9487Q80.7029 16.2856 82.2517 15.3652Q83.8005 14.4385 85.6731 14.4385Q87.3616 14.4385 88.6184 15.105Q89.8816 15.7651 90.637 16.7554L90.637 14.6733L93.6267 14.6733L93.6267 29L90.637 29L90.637 26.8672Q89.8816 27.8828 88.5803 28.562Q87.2791 29.2349 85.616 29.2349Q83.7751 29.2349 82.239 28.2891Q80.7029 27.3369 79.8079 25.6357Q78.9128 23.9282 78.9128 21.77ZM90.637 21.8271Q90.637 20.3418 90.0212 19.25Q89.4119 18.1582 88.4216 17.5869Q87.4377 17.0156 86.2952 17.0156Q85.1526 17.0156 84.1624 17.5742Q83.1721 18.1328 82.5627 19.2119Q81.9534 20.291 81.9534 21.77Q81.9534 23.2554 82.5627 24.3726Q83.1721 25.4897 84.175 26.0737Q85.178 26.6577 86.2952 26.6577Q87.4377 26.6577 88.4216 26.0864Q89.4119 25.5151 90.0212 24.4106Q90.637 23.3062 90.637 21.8271ZM100.489 16.7554Q101.143 15.6636 102.222 15.0542Q103.301 14.4385 104.78 14.4385L104.78 17.5107L104.025 17.5107Q102.285 17.5107 101.384 18.3931Q100.489 19.2754 100.489 21.459L100.489 29L97.5247 29L97.5247 14.6733L100.489 14.6733L100.489 16.7554ZM110.968 17.0918L110.968 25.02Q110.968 25.8262 111.343 26.1816Q111.724 26.5308 112.631 26.5308L114.453 26.5308L114.453 29L112.111 29Q110.111 29 109.045 28.0669Q107.978 27.1274 107.978 25.02L107.978 17.0918L106.29 17.0918L106.29 14.6733L107.978 14.6733L107.978 11.1123L110.968 11.1123L110.968 14.6733L114.453 14.6733L114.453 17.0918L110.968 17.0918Z" fill="#FFFFFF" fill-opacity="1.000000" fill-rule="evenodd"/>
	<path id="Vector 2" d="M133.916 14.0068L144.346 14.4238L144.763 24.8545" stroke="#FFFFFF" stroke-opacity="1.000000" stroke-width="2.000000"/>
	<path id="Vector 3" d="M144.161 14.6089L130 28.5498" stroke="#FFFFFF" stroke-opacity="1.000000" stroke-width="2.000000"/>
</svg>
