<svg width="100.769775" height="39.000000" viewBox="0 0 100.77 39" fill="none" xmlns="http://www.w3.org/2000/svg" xmlns:xlink="http://www.w3.org/1999/xlink">
	<desc>
			Created with Pixso.
	</desc>
	<defs/>
	<path id="Read" d="M11.3369 29L7.17285 21.77L4.91309 21.77L4.91309 29L1.94873 29L1.94873 10.9282L8.18848 10.9282Q10.2705 10.9282 11.7114 11.6582Q13.1587 12.3882 13.8696 13.6133Q14.5869 14.832 14.5869 16.3364Q14.5869 18.1074 13.5586 19.5483Q12.5303 20.9893 10.3975 21.5098L14.8726 29L11.3369 29ZM4.91309 19.4087L8.18848 19.4087Q9.85156 19.4087 10.6958 18.5771Q11.5464 17.7393 11.5464 16.3364Q11.5464 14.9336 10.7085 14.1401Q9.87695 13.3467 8.18848 13.3467L4.91309 13.3467L4.91309 19.4087ZM31.514 21.4844Q31.514 22.2905 31.4061 22.9443L20.4628 22.9443Q20.5897 24.6582 21.7323 25.6992Q22.8812 26.7402 24.5443 26.7402Q26.9374 26.7402 27.9213 24.7344L31.1205 24.7344Q30.473 26.7148 28.7655 27.978Q27.0643 29.2349 24.5443 29.2349Q22.4877 29.2349 20.8627 28.3145Q19.2377 27.3877 18.3173 25.7119Q17.3968 24.0361 17.3968 21.8271Q17.3968 19.6118 18.2919 17.936Q19.1869 16.2603 20.8119 15.3525Q22.4369 14.4385 24.5443 14.4385Q26.5692 14.4385 28.1561 15.3271Q29.743 16.2095 30.6254 17.8091Q31.514 19.4087 31.514 21.4844ZM28.4164 20.5513Q28.391 18.9136 27.2484 17.9233Q26.1058 16.9331 24.411 16.9331Q22.8812 16.9331 21.7894 17.9106Q20.6976 18.8882 20.4882 20.5513L28.4164 20.5513ZM33.4388 21.77Q33.4388 19.6118 34.3339 17.9487Q35.2289 16.2856 36.7777 15.3652Q38.3265 14.4385 40.1991 14.4385Q41.8876 14.4385 43.1444 15.105Q44.4076 15.7651 45.163 16.7554L45.163 14.6733L48.1527 14.6733L48.1527 29L45.163 29L45.163 26.8672Q44.4076 27.8828 43.1063 28.562Q41.8051 29.2349 40.142 29.2349Q38.3011 29.2349 36.765 28.2891Q35.2289 27.3369 34.3339 25.6357Q33.4388 23.9282 33.4388 21.77ZM45.163 21.8271Q45.163 20.3418 44.5472 19.25Q43.9379 18.1582 42.9476 17.5869Q41.9637 17.0156 40.8212 17.0156Q39.6786 17.0156 38.6884 17.5742Q37.6981 18.1328 37.0887 19.2119Q36.4794 20.291 36.4794 21.77Q36.4794 23.2554 37.0887 24.3726Q37.6981 25.4897 38.701 26.0737Q39.704 26.6577 40.8212 26.6577Q41.9637 26.6577 42.9476 26.0864Q43.9379 25.5151 44.5472 24.4106Q45.163 23.3062 45.163 21.8271ZM51.0668 21.77Q51.0668 19.6118 51.9619 17.9487Q52.8569 16.2856 54.4057 15.3652Q55.9545 14.4385 57.8525 14.4385Q59.2553 14.4385 60.6201 15.0542Q61.9848 15.6636 62.791 16.6729L62.791 9.76025L65.7807 9.76025L65.7807 29L62.791 29L62.791 26.8418Q62.061 27.8828 60.7724 28.562Q59.4902 29.2349 57.8271 29.2349Q55.9545 29.2349 54.4057 28.2891Q52.8569 27.3369 51.9619 25.6357Q51.0668 23.9282 51.0668 21.77ZM62.791 21.8271Q62.791 20.3418 62.1752 19.25Q61.5659 18.1582 60.5756 17.5869Q59.5917 17.0156 58.4492 17.0156Q57.3066 17.0156 56.3164 17.5742Q55.3261 18.1328 54.7167 19.2119Q54.1074 20.291 54.1074 21.77Q54.1074 23.2554 54.7167 24.3726Q55.3261 25.4897 56.329 26.0737Q57.332 26.6577 58.4492 26.6577Q59.5917 26.6577 60.5756 26.0864Q61.5659 25.5151 62.1752 24.4106Q62.791 23.3062 62.791 21.8271Z" fill="#FFFFFF" fill-opacity="1.000000" fill-rule="evenodd"/>
	<path id="Vector 2" d="M84.9155 15.0066L95.3459 15.4238L95.7632 25.8542" stroke="#FFFFFF" stroke-opacity="1.000000" stroke-width="2.000000"/>
	<path id="Vector 3" d="M95.1608 15.6089L81 29.55" stroke="#FFFFFF" stroke-opacity="1.000000" stroke-width="2.000000"/>
</svg>
