<svg width="97.769806" height="39.000000" viewBox="0 0 97.7698 39" fill="none" xmlns="http://www.w3.org/2000/svg" xmlns:xlink="http://www.w3.org/1999/xlink">
	<desc>
			Created with Pixso.
	</desc>
	<defs/>
	<path id="Work" d="M25.4795 10.9282L20.1221 29L16.7705 29L12.9746 15.3271L8.94385 29L5.61768 29.0254L0.495117 10.9282L3.63721 10.9282L7.38232 25.6484L11.4385 10.9282L14.771 10.9282L18.5352 25.5659L22.3057 10.9282L25.4795 10.9282ZM34.1371 29.2349Q32.1122 29.2349 30.4745 28.3145Q28.8368 27.3877 27.8973 25.7119Q26.9642 24.0361 26.9642 21.8271Q26.9642 19.6372 27.9227 17.9487Q28.8876 16.2603 30.5507 15.3525Q32.2137 14.4385 34.2704 14.4385Q36.3207 14.4385 37.9838 15.3525Q39.6469 16.2603 40.6117 17.9487Q41.5765 19.6372 41.5765 21.8271Q41.5765 24.0107 40.5863 25.6992Q39.5961 27.3877 37.8949 28.3145Q36.1937 29.2349 34.1371 29.2349ZM34.1371 26.6577Q35.2797 26.6577 36.2826 26.1118Q37.2855 25.5659 37.9076 24.4741Q38.5297 23.3823 38.5297 21.8271Q38.5297 20.2656 37.933 19.1865Q37.3363 18.1074 36.3461 17.5615Q35.3622 17.0156 34.2133 17.0156Q33.0707 17.0156 32.0931 17.5615Q31.122 18.1074 30.5507 19.1865Q29.9794 20.2656 29.9794 21.8271Q29.9794 24.1377 31.16 25.4009Q32.347 26.6577 34.1371 26.6577ZM47.4751 16.7554Q48.1289 15.6636 49.208 15.0542Q50.2871 14.4385 51.7661 14.4385L51.7661 17.5107L51.0107 17.5107Q49.2715 17.5107 48.3701 18.3931Q47.4751 19.2754 47.4751 21.459L47.4751 29L44.5107 29L44.5107 14.6733L47.4751 14.6733L47.4751 16.7554ZM60.1632 21.8525L66.7711 29L62.7657 29L57.4591 22.8364L57.4591 29L54.4947 29L54.4947 9.76025L57.4591 9.76025L57.4591 20.9385L62.6578 14.6733L66.7711 14.6733L60.1632 21.8525Z" fill="#FFFFFF" fill-opacity="1.000000" fill-rule="evenodd"/>
	<path id="Vector 2" d="M81.9155 15.0066L92.346 15.4238L92.7632 25.8543" stroke="#FFFFFF" stroke-opacity="1.000000" stroke-width="2.000000"/>
	<path id="Vector 3" d="M92.1609 15.6089L78 29.55" stroke="#FFFFFF" stroke-opacity="1.000000" stroke-width="2.000000"/>
</svg>
